# 3ds Max Wavefront OBJ Exporter v0.97b - (c)2007 guruware
# File Created: 11.04.2015 23:29:52

mtllib AnttrisBlock.mtl

#
# object Chamfered
#

v  0.9500 0.9500 1.0000
v  -0.9500 0.9500 1.0000
v  -0.9500 -0.9500 1.0000
v  0.9500 -0.9500 1.0000
v  -0.9500 0.9500 -1.0000
v  0.9500 0.9500 -1.0000
v  0.9500 -0.9500 -1.0000
v  -0.9500 -0.9500 -1.0000
v  -0.9500 1.0000 0.9500
v  0.9500 1.0000 0.9500
v  0.9500 1.0000 -0.9500
v  -0.9500 1.0000 -0.9500
v  1.0000 0.9500 0.9500
v  1.0000 -0.9500 0.9500
v  1.0000 -0.9500 -0.9500
v  1.0000 0.9500 -0.9500
v  0.9500 -1.0000 0.9500
v  -0.9500 -1.0000 0.9500
v  -0.9500 -1.0000 -0.9500
v  0.9500 -1.0000 -0.9500
v  -1.0000 -0.9500 0.9500
v  -1.0000 0.9500 0.9500
v  -1.0000 0.9500 -0.9500
v  -1.0000 -0.9500 -0.9500
# 24 vertices

vn 0.0000 0.0000 1.0000
vn 0.0000 0.0000 -1.0000
vn 0.0000 1.0000 -0.0000
vn 1.0000 0.0000 -0.0000
vn 0.0000 -1.0000 0.0000
vn -1.0000 0.0000 -0.0000
vn -0.5774 0.5774 0.5774
vn 0.5774 0.5774 0.5774
vn -0.5774 -0.5774 0.5774
vn 0.5774 -0.5774 0.5774
vn -0.5774 0.5774 -0.5774
vn 0.5774 0.5774 -0.5774
vn -0.5774 -0.5774 -0.5774
vn 0.5774 -0.5774 -0.5774
vn -0.7071 0.0000 0.7071
vn 0.0000 -0.7071 0.7071
vn 0.7071 0.0000 0.7071
vn 0.0000 0.7071 0.7071
vn 0.0000 0.7071 -0.7071
vn 0.7071 0.0000 -0.7071
vn 0.0000 -0.7071 -0.7071
vn -0.7071 0.0000 -0.7071
vn 0.7071 0.7071 -0.0000
vn -0.7071 0.7071 -0.0000
vn 0.7071 -0.7071 0.0000
vn -0.7071 -0.7071 0.0000
# 26 vertex normals

vt 0.7563 0.2562 -0.7500
vt 0.9937 0.2562 -0.7500
vt 0.9937 0.4938 -0.7500
vt 0.7563 0.4938 -0.7500
vt 0.2562 0.4938 0.7125
vt 0.4938 0.4938 0.7125
vt 0.4938 0.2562 -0.7125
vt 0.2562 0.2562 -0.7125
vt 0.2562 0.5063 -0.7125
vt 0.4938 0.5063 -0.7125
vt 0.4938 0.7437 0.7125
vt 0.2562 0.7437 0.7125
vt 0.5063 0.2562 -0.7500
vt 0.7437 0.2562 -0.7500
vt 0.7437 0.4938 -0.7500
vt 0.5063 0.4938 0.6750
vt 0.2562 0.0089 -0.7500
vt 0.4938 0.0089 -0.7500
vt 0.4938 0.2438 -0.7500
vt 0.2562 0.2438 -0.7500
vt 0.2437 0.2562 -0.7125
vt 0.0062 0.2562 -0.7125
vt 0.0062 0.4937 0.7125
vt 0.2437 0.4937 -0.7125
vt 0.2356 0.5182 -0.7125
vt 0.2356 0.4943 -0.7125
vt 0.7356 0.2682 -0.7500
vt 0.7356 0.2443 -0.7500
vt 0.2361 0.2607 -0.7125
vt 0.2361 0.2518 -0.7125
vt 0.7486 0.4982 -0.7500
vt 0.7486 0.4893 -0.7500
vt 0.2227 0.7631 0.7125
vt 0.2227 0.7244 0.7125
vt 0.4727 0.5131 0.6750
vt 0.4727 0.4744 0.6750
vt 0.2231 0.5056 -0.7125
vt 0.2231 0.4819 -0.7125
vt 0.2356 0.2557 -0.7500
vt 0.2356 0.2319 -0.7500
vt 0.0062 0.2474 -0.7125
vt 0.2437 0.2474 -0.7125
vt 0.4938 0.0177 -0.7500
vt 0.2562 0.0177 -0.7500
vt 0.7437 0.2651 -0.7500
vt 0.5063 0.2651 -0.7500
vt 0.4938 0.5151 -0.7125
vt 0.2562 0.5151 -0.7125
vt 0.2562 0.7349 0.7125
vt 0.4938 0.7349 0.7125
vt 0.4888 0.4429 0.6750
vt 0.7089 0.4501 -0.7720
vt 0.2562 0.2350 -0.7500
vt 0.4938 0.2350 -0.7500
vt 0.2612 0.5446 -0.7125
vt 0.0411 0.5374 0.7345
vt 0.5341 0.3022 -0.7500
vt 0.5532 0.5318 0.6970
vt -0.0216 0.4478 0.7125
vt -0.0407 0.2182 -0.7345
vt 0.2650 0.0089 -0.7500
vt 0.2650 0.2438 -0.7500
vt 0.2526 0.2562 -0.7125
vt 0.2526 0.4937 -0.7125
# 64 texture coords

g Chamfered
usemtl wire_198225087
s 2
f 1/1/1 2/2/1 3/3/1 
f 3/3/1 4/4/1 1/1/1 
s 4
f 5/5/2 6/6/2 7/7/2 
f 7/7/2 8/8/2 5/5/2 
s 8
f 9/9/3 10/10/3 11/11/3 
f 11/11/3 12/12/3 9/9/3 
s 16
f 13/13/4 14/14/4 15/15/4 
f 15/15/4 16/16/4 13/13/4 
s 32
f 17/17/5 18/18/5 19/19/5 
f 19/19/5 20/20/5 17/17/5 
s 64
f 21/21/6 22/22/6 23/23/6 
f 23/23/6 24/24/6 21/21/6 
s off
f 9/9/7 22/25/7 2/26/7 
f 1/1/8 13/27/8 10/28/8 
f 21/21/9 18/29/9 3/30/9 
f 4/4/10 17/31/10 14/32/10 
f 12/12/11 5/33/11 23/34/11 
f 16/16/12 6/35/12 11/36/12 
f 24/24/13 8/37/13 19/38/13 
f 20/20/14 7/39/14 15/40/14 
f 2/41/15 22/22/15 21/21/15 
f 21/21/15 3/42/15 2/41/15 
f 3/43/16 18/18/16 17/17/16 
f 17/17/16 4/44/16 3/43/16 
f 4/45/17 14/14/17 13/13/17 
f 13/13/17 1/46/17 4/45/17 
f 1/47/18 10/10/18 9/9/18 
f 9/9/18 2/48/18 1/47/18 
f 5/49/19 12/12/19 11/11/19 
f 11/11/19 6/50/19 5/49/19 
f 6/51/20 16/16/20 15/15/20 
f 15/15/20 7/52/20 6/51/20 
f 7/53/21 20/20/21 19/19/21 
f 19/19/21 8/54/21 7/53/21 
f 8/55/22 24/24/22 23/23/22 
f 23/23/22 5/56/22 8/55/22 
f 10/57/23 13/13/23 16/16/23 
f 16/16/23 11/58/23 10/57/23 
f 12/59/24 23/23/24 22/22/24 
f 22/22/24 9/60/24 12/59/24 
f 14/61/25 17/17/25 20/20/25 
f 20/20/25 15/62/25 14/61/25 
f 18/63/26 21/21/26 24/24/26 
f 24/24/26 19/64/26 18/63/26 
# 44 faces

